<svg id="visual" viewBox="0 0 900 600" width="900" height="600" xmlns="http://www.w3.org/2000/svg" xmlns:xlink="http://www.w3.org/1999/xlink" version="1.1"><path d="M654 600L655 600L655 480L631 480L631 360L634 360L634 240L663 240L663 120L641 120L641 0L900 0L900 120L900 120L900 240L900 240L900 360L900 360L900 480L900 480L900 600L900 600Z" fill="#17be3e"></path><path d="M758 600L737 600L737 480L737 480L737 360L709 360L709 240L739 240L739 120L729 120L729 0L900 0L900 120L900 120L900 240L900 240L900 360L900 360L900 480L900 480L900 600L900 600Z" fill="#1e9a3b"></path><path d="M845 600L834 600L834 480L823 480L823 360L783 360L783 240L796 240L796 120L778 120L778 0L900 0L900 120L900 120L900 240L900 240L900 360L900 360L900 480L900 480L900 600L900 600Z" fill="#227836"></path></svg>